<?xml version="1.0" encoding="UTF-8"?> <svg xmlns="http://www.w3.org/2000/svg" id="Layer_1" version="1.1" viewBox="0 0 300 121.11"><!-- Generator: Adobe Illustrator 29.2.1, SVG Export Plug-In . SVG Version: 2.1.0 Build 116) --><defs><style> .st0 { fill: #ece8d3; } .st1 { fill: #809a3c; } </style></defs><path class="st1" d="M259.9,29.17c.23-.01.31-.21.28-.38.01-.03.04-.05.04-.09.14-.61.16-1.34.23-2.22,1.23-13.45-10.77-20.8-18.12-22.25-.26-.05-.25.04-.28.43-.02,1.08.14,3.73.14,4.81,0,.77-.11.66-.56.32-.54-.43-1.99-1.31-3.41-1.99-5.21-2.83-12.94-2.85-17.07-3.94-1.15-.3-1.52-.73-1.5-.23,1.76,24.26,30.12,26.19,40.26,25.54ZM226.78,6.23c18.03,1.88,22.97,15.79,31.19,21.84-14.21-3.57-18.7-13.08-36.13-22.5l4.94.66Z"></path><g><g><path class="st0" d="M260.29,34.21c-12.47,0-26.82,11.85-29.38,26.35-4.81,7.35-10.47,13.9-14.91,13.9-2.07,0-3.71-1.53-3.71-5.45,0-5.35,2.4-11.89,6.11-19.63,4.14-6.65,5.56-9.71,5.56-11.45,0-2.18-1.64-3.71-4.14-3.71-2.84,0-5.56,2.18-9.27,9.27-2.59,4.96-5.36,11.21-6.96,16.98-4.81,7.35-10.29,13.23-14.64,13.23-1.85,0-2.95-1.42-2.95-3.93,0-8.94,9.6-17.12,9.6-24.32,0-5.24-6.33-7.31-11.02-10.03,2.18-3.82,3.27-6.76,3.27-8.4,0-2.62-1.85-4.58-5.13-4.58-3.71,0-8.83,5.02-8.83,12.65v1.53c-4.18,8.98-7.85,15.56-12.18,22.32-.2.29-.39.59-.59.91-4.91,7.64-10.69,14.62-15.27,14.62-1.75,0-3.16-1.53-3.16-4.91,0-4.04,2.73-11.89,6.87-22.47,2.62-6.98,6-14.94,8.62-20.83,4.47-7.42,6.11-11.45,6.11-13.85,0-1.96-1.53-3.49-4.04-3.49s-5.34,1.53-6.98,5.02c-2.51,5.78-7.09,16.91-10.25,25.2-2.07-3.27-5.24-4.91-9.49-4.91-13.08,0-27.14,12.52-30.6,26.39-4.81,7.33-10.45,13.86-14.88,13.86-1.75,0-2.95-1.42-2.95-3.93,0-8.83,10.03-18.11,10.03-27.05,0-5.56-4.14-9.27-10.14-9.27-5.67,0-12.76,5.35-18.65,11.78l1.53-3.71c.87-1.64,1.42-2.84,1.42-3.71,0-2.18-1.64-3.82-4.36-3.82s-4.8,1.53-6.11,4.69c-4.14,9.93-9.27,23.02-13.09,34.79-.33,1.09-.44,1.64-.44,2.62,0,2.84,2.07,4.03,4.14,4.03,3.27,0,4.47-2.18,5.13-4.25,2.51-7.85,7.42-17.01,11.78-22.14,4.91-5.89,12-13.09,16.69-13.09,1.31,0,2.07.55,2.07,1.64,0,7.09-9.93,17.78-9.93,26.72,0,6.98,4.47,11.13,11.56,11.13,5.76,0,11.31-3.42,16.28-8.42,1.94,5.49,6.89,8.42,13.28,8.42,5.89,0,11.56-3.82,16.36-9.38.87,6.11,5.89,9.38,11.89,9.38,10.68,0,17.54-8.35,23.96-18.08.27-.38.53-.78.8-1.22,4.58-7.2,8.29-13.74,11.67-20.51,2.29,1.2,4.47,2.4,4.47,4.58,0,5.89-9.38,15.49-9.38,24.1,0,6.98,4.47,11.13,11.56,11.13,5.39,0,10.55-3.07,15.24-7.64,1.53,5.08,5.84,7.64,11.82,7.64s11.86-3.77,17.02-9.19c2.44,6.04,8.42,9.19,16.03,9.19,14.83,0,29.56-16.47,29.56-31.52,0-9.6-6.33-15.16-17.02-15.16ZM131.58,63.22c-4.14,6.11-8.62,10.69-12.98,10.69-2.95,0-5.13-2.18-5.13-6.54,0-12.32,11.34-26.29,19.85-26.29,4.14,0,6.54,1.96,6.98,5.24-2.51,6.22-5.02,11.23-8.73,16.91ZM248.95,73.69c-3.93,0-7.09-2.73-7.09-8.29,0-12.11,10.69-24,18.21-24,3.71,0,6.22,2.4,6.22,7.74,0,11.45-8.51,24.54-17.34,24.54Z"></path><path class="st0" d="M53.85,10.7h0c-2.91-1.07-6.15.47-7.25,3.44l-22.42,59.91c-1.83,2.58-1.27,6.13,1.26,7.92s6.06,1.15,7.89-1.43l23.8-62.52c1.1-2.97-.37-6.25-3.28-7.32Z"></path></g><g><path class="st1" d="M90.88,113.81c-.54.03-1-.36-1.07-.9-.03-.2-.04-.4-.04-.6v-.16s-.04-1.58-.04-1.58c-.04-1.72-.08-3.49-.1-5.24,0-.42,0-.86.02-1.27,0-.29.02-.58.02-.87,0-.72,0-1.44,0-2.16v-.99c0-.07,0-.14,0-.21,0-.18,0-.35,0-.53.07-.72.53-1.13,1.27-1.13.51,0,1.02,0,1.53,0h.77c.85.01,1.71.01,2.57.02,1.03,0,2.06,0,3.09.01.3,0,.6.02.89.09.36.1.62.41.66.78.03.41-.24.78-.63.89-.29.08-.58.12-.87.13-1.37.05-2.74.09-4.11.13l-2.11.07c-.05,0-.13,0-.21,0-.18-.01-.36,0-.54.02-.01.09-.01.19,0,.28,0,.08,0,.15,0,.22,0,.2-.01.39-.01.59v.25c-.02.75,0,1.5.02,2.23,0,.25.02.51.04.76,0,.05,0,.11,0,.17,0,.03,0,.08,0,.12.08,0,.15,0,.23,0h.05c.52-.02,1.03-.04,1.55-.06.8-.03,1.62-.07,2.43-.09.55,0,1.11.01,1.66.06.25.03.5.11.71.25.35.2.51.61.38.99-.1.25-.28.46-.51.6-.15.08-.32.13-.49.13-.04,0-.08,0-.12.01-1.03.13-2.07.18-3.1.13-.24,0-.48,0-.72-.01-.23,0-.46,0-.7,0-.38,0-.75-.01-1.13-.01h-.02c-.09,0-.17,0-.26.01,0,.07,0,.15,0,.22,0,.05,0,.1,0,.14-.01.9-.02,1.8-.03,2.69,0,.73-.02,1.46-.03,2.2v.09c0,.22,0,.45-.04.67-.06.51-.49.89-1,.89-.02,0-.04,0-.06,0Z"></path><path class="st1" d="M112.35,113.73c-.55,0-1.02-.38-1.15-.91-.05-.29-.07-.58-.06-.87,0-2.14,0-10.27.04-12.23,0-.36.04-.71.09-1.06.04-.24.18-.45.38-.57.22-.13.48-.16.72-.08.54.12.94.57,1,1.11.04.42.06.84.05,1.26,0,1.53-.02,3.07-.03,4.6,0,1.28-.02,2.57-.02,3.85,0,.64,0,1.28,0,1.93v1.37c0,.2,0,.41-.02.61-.02.5-.39.92-.89,1-.04,0-.07,0-.11,0Z"></path><path class="st1" d="M127.5,113.97c-.07,0-.13,0-.2,0-.9-.07-1.32-.5-1.36-1.39-.03-.68-.05-1.37-.05-2.05,0-3.87,0-7.4,0-10.8,0-.36.04-.71.11-1.06.07-.35.37-.6.72-.62.11-.01.21-.01.32-.01h.97c2.23-.01,4.46-.02,6.7-.03.05,0,.11,0,.16,0,.24-.01.48,0,.72.04.28.06.54.19.76.37.21.18.31.46.29.73-.03.28-.19.52-.43.66-.27.15-.58.25-.89.27-.97.08-2,.15-3.06.19-.84.04-1.69.07-2.53.1-.55.02-1.1.04-1.65.06h-.05c-.07,0-.13,0-.2.02,0,.03,0,.07,0,.1,0,.04,0,.08,0,.12-.02.15-.03.31-.03.5,0,.24,0,.48.01.72,0,.12,0,.23.01.35.01.46.04.92.07,1.34,0,.1,0,.21.01.31,0,.16,0,.33.04.49.03.11.35.11.45.11.16,0,.31,0,.47,0,.3,0,.6,0,.9,0h.74c.85.03,1.71.05,2.56.07.45.02.9.06,1.35.13.21.03.42.1.61.22.32.19.49.55.44.92-.03.38-.32.7-.69.77h-.07c-.36.09-.72.14-1.09.16-1.24.02-2.5.02-3.72.02h-1.29c-.07,0-.13,0-.21,0-.14-.02-.29-.02-.43.02-.03.42-.04.85-.02,1.27,0,.13,0,.25,0,.38,0,.86.03,1.64.06,2.39,0,.1,0,.2,0,.3,0,.14,0,.29.02.43,0,.02,0,.05.01.07.06,0,.14,0,.19-.01.07,0,.13-.01.18-.01h.29c.65,0,1.3,0,1.95,0,.52,0,1.04-.01,1.57-.02.67-.01,1.34-.02,2-.03.36,0,.72.03,1.08.07l.17.02c.18.02.35.07.51.15.33.17.53.51.51.87,0,.39-.26.73-.63.83-.38.11-.77.18-1.16.22-1.39.1-2.46.16-3.47.2-.79.03-1.59.04-2.37.04-.33,0-.67,0-1.01.01h-.13c-.07,0-.14,0-.21,0Z"></path><path class="st1" d="M152.43,114.02c-.95,0-1.94-.02-2.93-.07-.22,0-.45-.03-.67-.08-.67-.17-.95-.55-.95-1.26v-.92c0-4.01-.01-8.01-.01-12.02,0-.39.05-.78.13-1.17.06-.36.38-.62.75-.62.39-.04.75.2.88.57.09.32.15.65.16.98.06,1.56.09,2.96.12,4.28.03,1.46.05,2.92.08,4.38.02,1.09.04,2.18.05,3.26v.16c0,.12,0,.24.03.35.04.02.09.02.14.02.41,0,.83-.02,1.24-.04.2,0,.4-.02.6-.03.8-.03,1.61-.05,2.41-.07.59-.01,1.18-.03,1.77-.05.36-.02.72.11.98.38.3.26.43.67.31,1.06-.12.37-.41.65-.79.74-.12.03-.23.04-.35.04-1.15.04-2.51.09-3.95.09Z"></path><path class="st1" d="M169.8,114.17c-.08,0-.16,0-.24-.01-.77-.03-1.37-.66-1.38-1.42-.05-1.05-.08-2.15-.09-3.37-.01-.89.06-4.73.11-7.28.01-.66.02-1.22.03-1.6h.32s-.32-.02-.32-.02c0-.37.01-.74.04-1.12.08-1.05.29-1.26,1.4-1.36,1.01-.09,2.03-.04,3.03.15.26.05.52.08.78.12.64.07,1.26.21,1.87.4,1.99.72,3.4,1.79,4.31,3.27.68,1.05,1.06,2.28,1.08,3.53,0,.64-.02,1.27-.06,1.86-.09,1.17-.56,2.25-1.49,3.39-1.26,1.6-3.06,2.68-5.06,3.04-1.36.25-2.73.39-4.11.42h-.05c-.05,0-.11,0-.16,0ZM170.5,111.97s.07,0,.11,0h.03c.38-.02.77-.04,1.14-.08,1.02-.1,2.01-.23,2.91-.59,1.75-.7,4.58-2.48,3.9-6.55-.14-.99-.59-1.91-1.28-2.62-1.07-1.06-2.23-1.68-3.54-1.9-.25-.04-.49-.09-.74-.13-.38-.07-.77-.15-1.16-.2-.11-.01-.25-.04-.39-.07-.34-.06-.85-.16-1.07-.05-.14.07-.15.24-.13.61,0,.08,0,.15,0,.22v.52c.01,3.61.03,7.22.04,10.83v.02s.12,0,.17,0Z"></path><path class="st1" d="M197.58,114.04c-1.8,0-3.54-.67-4.91-1.85-.38-.34-.7-.74-.96-1.17-.44-.68-.35-1.36.22-1.79.27-.19.61-.25.93-.18.36.08.67.3.86.62.22.37.52.69.87.94.61.43,1.31.71,2.05.83,1.24.2,2.8.14,3.45-.62.26-.33.37-.75.31-1.17-.07-.45-.24-.88-.49-1.26-.77-1.22-2.56-1.61-4-1.92l-.16-.04c-1.02-.23-1.96-.74-2.71-1.48-.68-.63-1.12-1.49-1.22-2.41-.07-.67-.03-1.36.11-2.02.11-.54.39-1.02.8-1.38.69-.66,1.53-1.15,2.45-1.4.84-.14,1.69-.21,2.54-.21.95.05,1.86.38,2.62.95.83.63,1.46,1.57,1.86,2.82.03.09.06.18.08.28.05.22.07.45.06.68.01.35-.2.67-.53.79-.36.15-.77.05-1.01-.26-.13-.17-.24-.36-.34-.55l-.05-.1c-.3-.57-.68-1.1-1.12-1.58-.57-.62-1.39-.93-2.23-.86-.85.04-2.84.28-3.05,1.57-.09.58.04,1.4.47,1.85.44.49,1.01.83,1.65.99.68.15,1.36.33,1.99.49,1.09.25,2.12.75,2.99,1.46.92.78,1.53,1.86,1.73,3.05.23,1.2-.08,2.34-.92,3.39-.26.33-.6.6-.98.78-1.05.48-2.19.74-3.34.75Z"></path></g></g></svg> 